<svg xmlns="http://www.w3.org/2000/svg" xmlns:xlink="http://www.w3.org/1999/xlink" width="175" zoomAndPan="magnify" viewBox="0 0 131.25 30.000001" height="40" preserveAspectRatio="xMidYMid meet" version="1.0"><defs><clipPath id="50db0f9418"><path d="M 2 3 L 128.769531 3 L 128.769531 26 L 2 26 Z M 2 3 " clip-rule="nonzero"/></clipPath><clipPath id="d626ede529"><path d="M 12 2.902344 L 27 2.902344 L 27 21 L 12 21 Z M 12 2.902344 " clip-rule="nonzero"/></clipPath></defs><g clip-path="url(#50db0f9418)"><path fill="#ffffff" d="M 6.320312 3.0625 C 5.023438 3.105469 4.34375 3.167969 3.050781 3.359375 L 2.328125 3.46875 L 2.328125 21 L 6.355469 21 L 6.371094 17.773438 L 6.390625 14.542969 L 7.398438 14.527344 L 8.40625 14.515625 L 8.734375 14.925781 C 9.507812 15.90625 10.941406 18.15625 12.160156 20.320312 L 12.542969 21 L 17.042969 21 L 17 20.851562 C 16.921875 20.59375 15.828125 18.558594 15.265625 17.625 C 14.675781 16.636719 13.460938 14.832031 12.980469 14.21875 C 12.808594 14.003906 12.671875 13.804688 12.671875 13.78125 C 12.671875 13.757812 12.796875 13.679688 12.953125 13.609375 C 13.386719 13.417969 14.183594 12.890625 14.558594 12.542969 C 15.039062 12.101562 15.5 11.382812 15.710938 10.753906 C 16.015625 9.851562 16.066406 8.347656 15.832031 7.347656 C 15.277344 4.972656 13.265625 3.5625 9.851562 3.15625 C 8.800781 3.03125 7.949219 3.007812 6.320312 3.0625 Z M 78.300781 3.839844 L 76.402344 4.144531 L 76.425781 10.570312 C 76.449219 16.957031 76.449219 17 76.601562 17.65625 C 76.785156 18.457031 76.945312 18.84375 77.332031 19.425781 C 78.226562 20.777344 79.890625 21.410156 82.285156 21.3125 C 82.765625 21.292969 83.398438 21.226562 83.695312 21.164062 C 84.464844 21.007812 85.476562 20.675781 85.472656 20.585938 C 85.472656 20.421875 84.957031 17.753906 84.921875 17.71875 C 84.902344 17.699219 84.6875 17.738281 84.449219 17.8125 C 83.542969 18.089844 82.21875 18.167969 81.589844 17.984375 C 81.183594 17.867188 80.820312 17.574219 80.636719 17.21875 C 80.335938 16.640625 80.304688 16.289062 80.304688 13.402344 L 80.304688 10.667969 L 84.9375 10.667969 L 84.9375 7.492188 L 80.304688 7.492188 L 80.304688 5.503906 C 80.304688 4.410156 80.28125 3.519531 80.253906 3.523438 C 80.226562 3.53125 79.347656 3.671875 78.300781 3.839844 Z M 9.648438 6.585938 C 10.722656 6.828125 11.3125 7.203125 11.601562 7.835938 C 11.738281 8.132812 11.761719 8.292969 11.761719 8.882812 C 11.761719 9.511719 11.746094 9.613281 11.574219 9.957031 C 11.09375 10.921875 10.179688 11.246094 7.75 11.3125 L 6.355469 11.351562 L 6.371094 8.941406 L 6.390625 6.53125 L 6.691406 6.488281 C 7.191406 6.414062 9.171875 6.480469 9.648438 6.585938 Z M 23.574219 7.257812 C 22.1875 7.507812 21.058594 8.09375 20.117188 9.058594 C 19.167969 10.03125 18.527344 11.308594 18.273438 12.738281 C 18.128906 13.554688 18.128906 15.140625 18.273438 15.945312 C 18.792969 18.863281 20.660156 20.703125 23.644531 21.242188 C 25.300781 21.542969 28.527344 21.234375 29.953125 20.636719 C 30.179688 20.542969 30.203125 20.511719 30.171875 20.351562 C 30.152344 20.253906 30.042969 19.621094 29.933594 18.949219 C 29.820312 18.273438 29.714844 17.660156 29.695312 17.585938 L 29.664062 17.445312 L 29.210938 17.597656 C 27.898438 18.03125 25.863281 18.210938 24.757812 17.992188 C 23.347656 17.714844 22.335938 16.851562 22.167969 15.785156 L 22.121094 15.503906 L 30.917969 15.503906 L 30.960938 14.996094 C 31.097656 13.414062 30.859375 11.648438 30.359375 10.519531 C 29.566406 8.742188 28.058594 7.605469 26.039062 7.265625 C 25.292969 7.140625 24.246094 7.136719 23.574219 7.257812 Z M 54.882812 7.207031 C 52.527344 7.523438 50.535156 9.03125 49.675781 11.152344 C 49.019531 12.777344 48.910156 14.757812 49.378906 16.503906 C 49.722656 17.777344 50.527344 19.089844 51.441406 19.863281 C 53.375 21.496094 56.4375 21.855469 58.867188 20.730469 C 61.234375 19.640625 62.53125 17.328125 62.519531 14.214844 C 62.515625 12.207031 61.976562 10.632812 60.851562 9.316406 C 59.917969 8.226562 58.425781 7.441406 56.90625 7.230469 C 56.40625 7.164062 55.308594 7.148438 54.882812 7.207031 Z M 91.21875 7.207031 C 90.027344 7.316406 87.960938 7.714844 87.960938 7.835938 C 87.960938 7.921875 88.4375 10.832031 88.453125 10.847656 C 88.460938 10.855469 88.648438 10.808594 88.871094 10.742188 C 89.910156 10.421875 91.988281 10.246094 92.898438 10.398438 C 94.082031 10.597656 94.640625 11.191406 94.726562 12.351562 C 94.761719 12.839844 94.757812 12.867188 94.636719 12.832031 C 93.984375 12.636719 91.820312 12.59375 90.8125 12.753906 C 89.464844 12.96875 88.453125 13.417969 87.757812 14.109375 C 87.519531 14.351562 87.238281 14.699219 87.136719 14.886719 C 86.390625 16.257812 86.582031 18.488281 87.546875 19.640625 C 88.621094 20.921875 90.410156 21.382812 93.8125 21.257812 C 95.164062 21.207031 95.859375 21.125 97.484375 20.824219 L 98.445312 20.644531 L 98.421875 15.90625 C 98.398438 11.253906 98.394531 11.15625 98.25 10.636719 C 97.675781 8.578125 96.328125 7.53125 93.871094 7.230469 C 93.339844 7.164062 91.816406 7.152344 91.21875 7.207031 Z M 120.96875 7.207031 C 119.613281 7.332031 117.714844 7.714844 117.714844 7.859375 C 117.714844 7.972656 118.183594 10.824219 118.203125 10.847656 C 118.214844 10.855469 118.402344 10.808594 118.621094 10.742188 C 119.433594 10.492188 120.320312 10.382812 121.542969 10.375 C 122.863281 10.371094 123.246094 10.445312 123.738281 10.804688 C 124.148438 11.101562 124.441406 11.710938 124.484375 12.367188 C 124.511719 12.835938 124.507812 12.867188 124.390625 12.832031 C 123.726562 12.632812 121.570312 12.59375 120.535156 12.757812 C 118.347656 13.109375 116.921875 14.1875 116.539062 15.777344 C 116.410156 16.3125 116.410156 17.453125 116.535156 18.042969 C 116.882812 19.660156 118.089844 20.707031 120.054688 21.097656 C 120.855469 21.257812 122.070312 21.3125 123.566406 21.257812 C 124.996094 21.203125 125.328125 21.164062 127.035156 20.855469 L 128.199219 20.644531 L 128.175781 15.941406 L 128.152344 11.234375 L 127.972656 10.585938 C 127.738281 9.726562 127.394531 9.109375 126.878906 8.59375 C 126.167969 7.886719 125.011719 7.398438 123.65625 7.234375 C 123.09375 7.164062 121.582031 7.152344 120.96875 7.207031 Z M 38.058594 7.269531 C 36.691406 7.40625 35.078125 7.671875 34.28125 7.890625 L 34.027344 7.960938 L 34.027344 25.769531 L 37.855469 25.769531 L 37.855469 23.253906 C 37.855469 21.867188 37.875 20.734375 37.898438 20.734375 C 37.921875 20.734375 38.21875 20.824219 38.554688 20.929688 C 39.417969 21.203125 40.144531 21.292969 41.109375 21.246094 C 42.03125 21.203125 42.582031 21.082031 43.285156 20.761719 C 44.480469 20.222656 45.425781 19.277344 45.988281 18.054688 C 46.757812 16.378906 46.945312 13.882812 46.441406 11.960938 C 46.285156 11.363281 45.835938 10.375 45.507812 9.898438 C 44.574219 8.550781 42.992188 7.625 41.117188 7.324219 C 40.5625 7.234375 38.734375 7.203125 38.058594 7.269531 Z M 69.644531 7.296875 C 68.675781 7.390625 67.242188 7.699219 65.980469 8.085938 L 65.527344 8.226562 L 65.527344 21 L 69.421875 21 L 69.421875 10.683594 L 69.875 10.597656 C 70.636719 10.449219 71.941406 10.492188 72.90625 10.699219 C 73.363281 10.796875 73.753906 10.859375 73.777344 10.835938 C 73.800781 10.8125 73.960938 10.105469 74.132812 9.269531 L 74.441406 7.746094 L 74.265625 7.679688 C 74 7.578125 72.894531 7.375 72.164062 7.296875 C 71.433594 7.21875 70.472656 7.21875 69.644531 7.296875 Z M 105.691406 7.300781 C 104.832031 7.390625 103.527344 7.605469 102.71875 7.796875 L 101.996094 7.964844 L 101.996094 21 L 105.890625 21 L 105.890625 15.808594 C 105.890625 10.925781 105.898438 10.613281 106.011719 10.574219 C 106.074219 10.546875 106.554688 10.511719 107.074219 10.488281 C 107.914062 10.457031 108.074219 10.46875 108.484375 10.589844 C 109.269531 10.828125 109.621094 11.308594 109.820312 12.421875 C 109.902344 12.902344 109.921875 13.703125 109.921875 17.003906 L 109.921875 21 L 113.816406 21 L 113.816406 16.972656 C 113.816406 14.53125 113.789062 12.660156 113.746094 12.222656 C 113.449219 9.320312 112.09375 7.777344 109.457031 7.332031 C 108.757812 7.214844 106.707031 7.199219 105.691406 7.300781 Z M 25.636719 10.441406 C 26.503906 10.734375 27.089844 11.535156 27.222656 12.605469 L 27.261719 12.921875 L 24.703125 12.921875 C 22.230469 12.921875 22.140625 12.917969 22.140625 12.796875 C 22.140625 12.582031 22.410156 11.777344 22.582031 11.488281 C 22.804688 11.105469 23.359375 10.632812 23.773438 10.476562 C 24.214844 10.308594 25.199219 10.289062 25.636719 10.441406 Z M 56.421875 10.507812 C 57.347656 10.652344 58.078125 11.457031 58.421875 12.714844 C 58.621094 13.433594 58.621094 15.046875 58.421875 15.777344 C 58.132812 16.84375 57.671875 17.484375 56.941406 17.839844 C 56.527344 18.039062 56.449219 18.054688 55.824219 18.054688 C 55.195312 18.054688 55.117188 18.039062 54.699219 17.835938 C 53.957031 17.476562 53.453125 16.773438 53.191406 15.730469 C 53.03125 15.089844 53.03125 13.398438 53.191406 12.761719 C 53.519531 11.460938 54.3125 10.628906 55.371094 10.476562 C 55.753906 10.421875 55.914062 10.425781 56.421875 10.507812 Z M 40.355469 10.546875 C 41.542969 10.792969 42.394531 11.761719 42.667969 13.191406 C 42.832031 14.039062 42.765625 15.492188 42.535156 16.203125 C 42.261719 17.027344 41.835938 17.539062 41.167969 17.835938 C 40.484375 18.140625 39.074219 18.054688 38.207031 17.660156 L 37.855469 17.496094 L 37.855469 10.605469 L 38.007812 10.574219 C 38.5 10.464844 39.890625 10.449219 40.355469 10.546875 Z M 94.070312 15.25 L 94.742188 15.324219 L 94.742188 18.273438 L 94.023438 18.320312 C 92.378906 18.433594 91.324219 18.253906 90.875 17.785156 C 90.386719 17.277344 90.410156 16.257812 90.925781 15.769531 C 91.445312 15.277344 92.601562 15.085938 94.070312 15.25 Z M 124.195312 15.292969 L 124.464844 15.339844 L 124.480469 16.757812 C 124.492188 17.539062 124.472656 18.203125 124.441406 18.234375 C 124.339844 18.335938 122.292969 18.378906 121.785156 18.292969 C 120.679688 18.101562 120.199219 17.5625 120.285156 16.617188 C 120.335938 16.0625 120.550781 15.769531 121.085938 15.511719 C 121.316406 15.398438 121.703125 15.28125 121.945312 15.246094 C 122.390625 15.179688 123.710938 15.207031 124.195312 15.292969 Z M 124.195312 15.292969 " fill-opacity="1" fill-rule="evenodd"/></g><g clip-path="url(#d626ede529)"><path fill="#00e676" d="M 17.792969 11.332031 C 15.273438 15.964844 13.058594 20.03125 12.871094 20.371094 L 12.535156 20.984375 L 14.839844 20.980469 L 17.140625 20.980469 L 21.574219 12.722656 C 24.011719 8.183594 26.195312 4.117188 26.425781 3.683594 L 26.847656 2.902344 L 24.613281 2.90625 L 22.378906 2.90625 Z M 17.792969 11.332031 " fill-opacity="1" fill-rule="evenodd"/></g></svg>