<svg xmlns="http://www.w3.org/2000/svg" xmlns:xlink="http://www.w3.org/1999/xlink" width="175" zoomAndPan="magnify" viewBox="0 0 131.25 30.000001" height="40" preserveAspectRatio="xMidYMid meet" version="1.0"><defs><clipPath id="b67a8bc610"><path d="M 2 3 L 128.769531 3 L 128.769531 26.128906 L 2 26.128906 Z M 2 3 " clip-rule="nonzero"/></clipPath><clipPath id="568fc1fa02"><path d="M 12 2.902344 L 27 2.902344 L 27 22 L 12 22 Z M 12 2.902344 " clip-rule="nonzero"/></clipPath></defs><g clip-path="url(#b67a8bc610)"><path fill="#000000" d="M 6.320312 3.066406 C 5.023438 3.109375 4.34375 3.171875 3.050781 3.367188 L 2.328125 3.476562 L 2.328125 21.257812 L 6.355469 21.257812 L 6.371094 17.984375 L 6.390625 14.707031 L 7.398438 14.695312 L 8.40625 14.679688 L 8.734375 15.097656 C 9.507812 16.089844 10.941406 18.375 12.160156 20.570312 L 12.542969 21.257812 L 17.042969 21.257812 L 17 21.105469 C 16.921875 20.847656 15.828125 18.78125 15.265625 17.832031 C 14.675781 16.832031 13.460938 15 12.980469 14.378906 C 12.808594 14.160156 12.671875 13.960938 12.671875 13.933594 C 12.671875 13.910156 12.796875 13.832031 12.953125 13.761719 C 13.386719 13.566406 14.183594 13.03125 14.558594 12.679688 C 15.039062 12.230469 15.5 11.503906 15.710938 10.867188 C 16.015625 9.949219 16.066406 8.425781 15.832031 7.410156 C 15.277344 5 13.265625 3.574219 9.851562 3.160156 C 8.800781 3.03125 7.949219 3.011719 6.320312 3.066406 Z M 78.300781 3.851562 L 76.402344 4.164062 L 76.425781 10.679688 C 76.449219 17.15625 76.449219 17.199219 76.601562 17.863281 C 76.785156 18.679688 76.945312 19.070312 77.332031 19.660156 C 78.226562 21.03125 79.890625 21.671875 82.285156 21.574219 C 82.765625 21.554688 83.398438 21.484375 83.695312 21.425781 C 84.464844 21.265625 85.476562 20.929688 85.472656 20.835938 C 85.472656 20.667969 84.957031 17.964844 84.921875 17.929688 C 84.902344 17.90625 84.6875 17.949219 84.449219 18.023438 C 83.542969 18.304688 82.21875 18.386719 81.589844 18.199219 C 81.183594 18.078125 80.820312 17.78125 80.636719 17.421875 C 80.335938 16.835938 80.304688 16.480469 80.304688 13.550781 L 80.304688 10.78125 L 84.9375 10.78125 L 84.9375 7.554688 L 80.304688 7.554688 L 80.304688 5.542969 C 80.304688 4.433594 80.28125 3.53125 80.253906 3.535156 C 80.226562 3.539062 79.347656 3.683594 78.300781 3.851562 Z M 9.648438 6.640625 C 10.722656 6.882812 11.3125 7.261719 11.601562 7.90625 C 11.738281 8.207031 11.761719 8.367188 11.761719 8.964844 C 11.761719 9.605469 11.746094 9.707031 11.574219 10.054688 C 11.09375 11.035156 10.179688 11.363281 7.75 11.429688 L 6.355469 11.46875 L 6.371094 9.027344 L 6.390625 6.582031 L 6.691406 6.539062 C 7.191406 6.464844 9.171875 6.53125 9.648438 6.640625 Z M 23.574219 7.320312 C 22.1875 7.570312 21.058594 8.167969 20.117188 9.144531 C 19.167969 10.132812 18.527344 11.425781 18.273438 12.878906 C 18.128906 13.703125 18.128906 15.316406 18.273438 16.132812 C 18.792969 19.085938 20.660156 20.957031 23.644531 21.503906 C 25.300781 21.804688 28.527344 21.492188 29.953125 20.890625 C 30.179688 20.792969 30.203125 20.761719 30.171875 20.597656 C 30.152344 20.5 30.042969 19.859375 29.933594 19.175781 C 29.820312 18.492188 29.714844 17.871094 29.695312 17.792969 L 29.664062 17.652344 L 29.210938 17.804688 C 27.898438 18.246094 25.863281 18.429688 24.757812 18.207031 C 23.347656 17.921875 22.335938 17.046875 22.167969 15.96875 L 22.121094 15.683594 L 30.917969 15.683594 L 30.960938 15.167969 C 31.097656 13.5625 30.859375 11.773438 30.359375 10.628906 C 29.566406 8.824219 28.058594 7.671875 26.039062 7.328125 C 25.292969 7.199219 24.246094 7.195312 23.574219 7.320312 Z M 54.882812 7.269531 C 52.527344 7.585938 50.535156 9.121094 49.675781 11.269531 C 49.019531 12.917969 48.910156 14.925781 49.378906 16.695312 C 49.722656 17.988281 50.527344 19.320312 51.441406 20.105469 C 53.375 21.757812 56.4375 22.125 58.867188 20.984375 C 61.234375 19.875 62.53125 17.53125 62.519531 14.375 C 62.515625 12.339844 61.976562 10.742188 60.851562 9.40625 C 59.917969 8.304688 58.425781 7.503906 56.90625 7.292969 C 56.40625 7.222656 55.308594 7.210938 54.882812 7.269531 Z M 91.21875 7.269531 C 90.027344 7.378906 87.960938 7.785156 87.960938 7.902344 C 87.960938 7.992188 88.4375 10.941406 88.453125 10.960938 C 88.460938 10.96875 88.648438 10.921875 88.871094 10.851562 C 89.910156 10.53125 91.988281 10.351562 92.898438 10.503906 C 94.082031 10.707031 94.640625 11.308594 94.726562 12.484375 C 94.761719 12.980469 94.757812 13.007812 94.636719 12.972656 C 93.984375 12.773438 91.820312 12.730469 90.8125 12.894531 C 89.464844 13.113281 88.453125 13.566406 87.757812 14.269531 C 87.519531 14.511719 87.238281 14.867188 87.136719 15.058594 C 86.390625 16.445312 86.582031 18.710938 87.546875 19.878906 C 88.621094 21.179688 90.410156 21.644531 93.8125 21.519531 C 95.164062 21.464844 95.859375 21.382812 97.484375 21.078125 L 98.445312 20.894531 L 98.421875 16.089844 C 98.398438 11.375 98.394531 11.273438 98.25 10.746094 C 97.675781 8.660156 96.328125 7.59375 93.871094 7.289062 C 93.339844 7.222656 91.816406 7.210938 91.21875 7.269531 Z M 120.96875 7.269531 C 119.613281 7.394531 117.714844 7.78125 117.714844 7.929688 C 117.714844 8.046875 118.183594 10.9375 118.203125 10.957031 C 118.214844 10.96875 118.402344 10.921875 118.621094 10.851562 C 119.433594 10.601562 120.320312 10.488281 121.542969 10.484375 C 122.863281 10.476562 123.246094 10.550781 123.738281 10.914062 C 124.148438 11.21875 124.441406 11.835938 124.484375 12.503906 C 124.511719 12.976562 124.507812 13.007812 124.390625 12.972656 C 123.726562 12.773438 121.570312 12.730469 120.535156 12.898438 C 118.347656 13.253906 116.921875 14.347656 116.539062 15.957031 C 116.410156 16.503906 116.410156 17.660156 116.535156 18.257812 C 116.882812 19.898438 118.089844 20.960938 120.054688 21.355469 C 120.855469 21.519531 122.070312 21.574219 123.566406 21.515625 C 124.996094 21.460938 125.328125 21.421875 127.035156 21.109375 L 128.199219 20.898438 L 128.152344 11.351562 L 127.972656 10.695312 C 127.738281 9.824219 127.394531 9.199219 126.878906 8.675781 C 126.167969 7.957031 125.011719 7.460938 123.65625 7.292969 C 123.09375 7.226562 121.582031 7.210938 120.96875 7.269531 Z M 38.058594 7.332031 C 36.691406 7.472656 35.078125 7.742188 34.28125 7.960938 L 34.027344 8.03125 L 34.027344 26.09375 L 37.855469 26.09375 L 37.855469 23.539062 C 37.855469 22.136719 37.875 20.988281 37.898438 20.988281 C 37.921875 20.988281 38.21875 21.078125 38.554688 21.183594 C 39.417969 21.460938 40.144531 21.550781 41.109375 21.503906 C 42.03125 21.460938 42.582031 21.339844 43.285156 21.015625 C 44.480469 20.46875 45.425781 19.511719 45.988281 18.269531 C 46.757812 16.570312 46.945312 14.039062 46.441406 12.089844 C 46.285156 11.480469 45.835938 10.480469 45.507812 9.996094 C 44.574219 8.628906 42.992188 7.691406 41.117188 7.386719 C 40.5625 7.296875 38.734375 7.265625 38.058594 7.332031 Z M 69.644531 7.359375 C 68.675781 7.453125 67.242188 7.765625 65.980469 8.160156 L 65.527344 8.300781 L 65.527344 21.257812 L 69.421875 21.257812 L 69.421875 10.796875 L 69.875 10.707031 C 70.636719 10.554688 71.941406 10.601562 72.90625 10.808594 C 73.363281 10.910156 73.753906 10.96875 73.777344 10.945312 C 73.800781 10.921875 73.960938 10.207031 74.132812 9.359375 L 74.441406 7.816406 L 74.265625 7.746094 C 74 7.644531 72.894531 7.441406 72.164062 7.359375 C 71.433594 7.277344 70.472656 7.277344 69.644531 7.359375 Z M 105.691406 7.363281 C 104.832031 7.453125 103.527344 7.671875 102.71875 7.867188 L 101.996094 8.039062 L 101.996094 21.257812 L 105.890625 21.257812 L 105.890625 15.992188 C 105.890625 11.039062 105.898438 10.722656 106.011719 10.679688 C 106.074219 10.65625 106.554688 10.617188 107.074219 10.597656 C 107.914062 10.5625 108.074219 10.574219 108.484375 10.699219 C 109.269531 10.9375 109.621094 11.425781 109.820312 12.554688 C 109.902344 13.042969 109.921875 13.855469 109.921875 17.203125 L 109.921875 21.257812 L 113.816406 21.257812 L 113.816406 17.171875 C 113.816406 14.695312 113.789062 12.796875 113.746094 12.351562 C 113.449219 9.414062 112.09375 7.847656 109.457031 7.394531 C 108.757812 7.277344 106.707031 7.257812 105.691406 7.363281 Z M 25.636719 10.546875 C 26.503906 10.847656 27.089844 11.65625 27.222656 12.746094 L 27.261719 13.0625 L 24.703125 13.0625 C 22.230469 13.0625 22.140625 13.058594 22.140625 12.9375 C 22.140625 12.71875 22.410156 11.902344 22.582031 11.609375 C 22.804688 11.21875 23.359375 10.742188 23.773438 10.585938 C 24.214844 10.414062 25.199219 10.394531 25.636719 10.546875 Z M 56.421875 10.613281 C 57.347656 10.761719 58.078125 11.578125 58.421875 12.851562 C 58.621094 13.585938 58.621094 15.21875 58.421875 15.960938 C 58.132812 17.039062 57.671875 17.691406 56.941406 18.050781 C 56.527344 18.253906 56.449219 18.269531 55.824219 18.269531 C 55.195312 18.269531 55.117188 18.253906 54.699219 18.046875 C 53.957031 17.683594 53.453125 16.96875 53.191406 15.910156 C 53.03125 15.261719 53.03125 13.550781 53.191406 12.898438 C 53.519531 11.582031 54.3125 10.738281 55.371094 10.582031 C 55.753906 10.527344 55.914062 10.53125 56.421875 10.613281 Z M 40.355469 10.652344 C 41.542969 10.902344 42.394531 11.890625 42.667969 13.335938 C 42.832031 14.195312 42.765625 15.667969 42.535156 16.390625 C 42.261719 17.230469 41.835938 17.75 41.167969 18.046875 C 40.484375 18.355469 39.074219 18.269531 38.207031 17.867188 L 37.855469 17.703125 L 37.855469 10.714844 L 38.007812 10.683594 C 38.5 10.574219 39.890625 10.554688 40.355469 10.652344 Z M 94.070312 15.421875 L 94.742188 15.5 L 94.742188 18.492188 L 94.023438 18.539062 C 92.378906 18.652344 91.324219 18.46875 90.875 17.996094 C 90.386719 17.480469 90.410156 16.445312 90.925781 15.953125 C 91.445312 15.449219 92.601562 15.257812 94.070312 15.421875 Z M 124.195312 15.46875 L 124.464844 15.515625 L 124.480469 16.957031 C 124.492188 17.746094 124.472656 18.417969 124.441406 18.453125 C 124.339844 18.554688 122.292969 18.597656 121.785156 18.511719 C 120.679688 18.316406 120.199219 17.769531 120.285156 16.808594 C 120.335938 16.25 120.550781 15.949219 121.085938 15.691406 C 121.316406 15.578125 121.703125 15.453125 121.945312 15.417969 C 122.390625 15.351562 123.710938 15.382812 124.195312 15.46875 Z M 124.195312 15.46875 " fill-opacity="1" fill-rule="evenodd"/></g><g clip-path="url(#568fc1fa02)"><path fill="#00e676" d="M 17.792969 11.453125 C 15.273438 16.152344 13.058594 20.277344 12.871094 20.617188 L 12.535156 21.238281 L 14.839844 21.238281 L 17.140625 21.234375 L 21.574219 12.863281 C 24.011719 8.257812 26.195312 4.132812 26.425781 3.695312 L 26.847656 2.902344 L 24.613281 2.90625 L 22.378906 2.90625 Z M 17.792969 11.453125 " fill-opacity="1" fill-rule="evenodd"/></g></svg>